<svg id="ae582e38-bf01-4665-8f36-d6f8ff1c182b" data-name="Layer 1" xmlns="http://www.w3.org/2000/svg" viewBox="0 0 970.99286 1049"><defs><style>.e25f18da-4561-483f-9fcb-1d5848aa5922{fill:#fff;}.a4e521e8-13d2-4781-be66-c28d1e06475f,.e9866343-0da7-4347-a181-19891adcbcab{stroke:#000;stroke-miterlimit:10;}.e9866343-0da7-4347-a181-19891adcbcab{stroke-width:9px;}.a4e521e8-13d2-4781-be66-c28d1e06475f{fill:none;stroke-width:72px;}</style></defs><title>gyro-icon-4</title><path class="e25f18da-4561-483f-9fcb-1d5848aa5922" d="M325.13549,143H647.863a35.63623,35.63623,0,0,1,35.63623,35.63623V878.36328A35.63672,35.63672,0,0,1,647.86254,914H325.136a35.63672,35.63672,0,0,1-35.63672-35.63672V178.63623A35.63623,35.63623,0,0,1,325.13549,143Z"/><path d="M700.86365,159A31.17169,31.17169,0,0,1,732,190.13635v699.7273A31.17169,31.17169,0,0,1,700.86365,921H378.13635A31.17169,31.17169,0,0,1,347,889.86365V190.13635A31.17169,31.17169,0,0,1,378.13635,159h322.7273m0-9H378.13635A40.13634,40.13634,0,0,0,338,190.13635v699.7273A40.13635,40.13635,0,0,0,378.13635,930h322.7273A40.13637,40.13637,0,0,0,741,889.86365V190.13635A40.13636,40.13636,0,0,0,700.86365,150Z" transform="translate(-53.00074 -11.5)"/><path d="M699.86365,159A31.17169,31.17169,0,0,1,731,190.13635v699.7273A31.17169,31.17169,0,0,1,699.86365,921H377.13635A31.17169,31.17169,0,0,1,346,889.86365V190.13635A31.17169,31.17169,0,0,1,377.13635,159h322.7273m0-9H377.13635A40.13634,40.13634,0,0,0,337,190.13635v699.7273A40.13635,40.13635,0,0,0,377.13635,930h322.7273A40.13637,40.13637,0,0,0,740,889.86365V190.13635A40.13636,40.13636,0,0,0,699.86365,150Z" transform="translate(-53.00074 -11.5)"/><path class="e9866343-0da7-4347-a181-19891adcbcab" d="M343.5,864.5h393v23.76305A41.89716,41.89716,0,0,1,694.44444,930h-307A43.77894,43.77894,0,0,1,343.5,886.38847Z" transform="translate(-53.00074 -11.5)"/><path class="e9866343-0da7-4347-a181-19891adcbcab" d="M735.5,201.99992h-393V183.13463C342.5,164.83488,361.3289,150,384.55554,150h307C715.82539,150,735.5,165.50117,735.5,184.62284Z" transform="translate(-53.00074 -11.5)"/><rect class="e25f18da-4561-483f-9fcb-1d5848aa5922" x="392.99926" y="162.16666" width="185" height="5.33334" rx="2.66667"/><path class="a4e521e8-13d2-4781-be66-c28d1e06475f" d="M738,388h3c207.55682,60.51828,247.19934,108.99481,246.9928,141.36383C987.487,608.6347,747.386,685.99994,538.49841,685.92365,329.94769,685.84747,90.1386,609.65875,89.004,529.36383,88.27086,477.475,209.81252,419.02872,291.03088,397.928A405.21234,405.21234,0,0,1,343,388" transform="translate(-53.00074 -11.5)"/><circle class="e25f18da-4561-483f-9fcb-1d5848aa5922" cx="487.99926" cy="885.5" r="19"/><path class="a4e521e8-13d2-4781-be66-c28d1e06475f" d="M655.5,149v-2.5l-3.38995-6.88182C626.626,81.65424,595.32855,47.5,561.5,47.5c-85.60413,0-155,218.70889-155,488.5s69.39587,488.5,155,488.5c34.38708,0,66.15881-35.29132,91.86755-95.00861L647.5,921.5" transform="translate(-53.00074 -11.5)"/></svg>